<svg xmlns="http://www.w3.org/2000/svg" viewBox="0 0 32 32" width="32" height="32">
  <defs>
    <linearGradient id="grad" x1="0%" y1="0%" x2="100%" y2="100%">
      <stop offset="0%" style="stop-color:#3f51b5;stop-opacity:1" />
      <stop offset="100%" style="stop-color:#303f9f;stop-opacity:1" />
    </linearGradient>
  </defs>
  
  <!-- Background circle -->
  <circle cx="16" cy="16" r="15" fill="url(#grad)" stroke="#1a237e" stroke-width="1"/>
  
  <!-- Brain/Neural network symbol -->
  <g fill="white" fill-opacity="0.9">
    <!-- Central node -->
    <circle cx="16" cy="16" r="2"/>
    
    <!-- Neural connections -->
    <circle cx="10" cy="10" r="1.5"/>
    <circle cx="22" cy="10" r="1.5"/>
    <circle cx="10" cy="22" r="1.5"/>
    <circle cx="22" cy="22" r="1.5"/>
    <circle cx="8" cy="16" r="1"/>
    <circle cx="24" cy="16" r="1"/>
    
    <!-- Connection lines -->
    <line x1="16" y1="16" x2="10" y2="10" stroke="white" stroke-width="1" opacity="0.7"/>
    <line x1="16" y1="16" x2="22" y2="10" stroke="white" stroke-width="1" opacity="0.7"/>
    <line x1="16" y1="16" x2="10" y2="22" stroke="white" stroke-width="1" opacity="0.7"/>
    <line x1="16" y1="16" x2="22" y2="22" stroke="white" stroke-width="1" opacity="0.7"/>
    <line x1="16" y1="16" x2="8" y2="16" stroke="white" stroke-width="1" opacity="0.7"/>
    <line x1="16" y1="16" x2="24" y2="16" stroke="white" stroke-width="1" opacity="0.7"/>
  </g>
  
  <!-- Code/text elements -->
  <g fill="white" fill-opacity="0.6" font-family="monospace" font-size="4">
    <text x="5" y="7">{"}</text>
    <text x="25" y="7">AI</text>
    <text x="5" y="28">✦</text>
    <text x="24" y="28">{"}</text>
  </g>
</svg>